<svg width="166" height="50" viewBox="0 0 166 50" fill="none" xmlns="http://www.w3.org/2000/svg">
<path d="M41.9424 26.7968C41.9424 37.311 33.419 45.8344 22.9048 45.8344C12.3906 45.8344 3.86719 37.311 3.86719 26.7968C3.86719 16.2826 12.3906 7.75918 22.9048 7.75918C27.3144 7.75918 31.3739 9.25841 34.6013 11.775L34.6006 11.7716C34.9395 12.0621 35.5119 11.6935 36.0919 11.32C36.5345 11.035 36.9814 10.7471 37.3324 10.7471L35.1812 12.6387L34.5811 13.1923C31.4441 10.4975 27.3647 8.86899 22.9048 8.86899C13.0036 8.86899 4.977 16.8955 4.977 26.7968C4.977 36.698 13.0036 44.7246 22.9048 44.7246C32.8061 44.7246 40.8326 36.698 40.8326 26.7968C40.8326 22.2609 39.1481 18.1184 36.3705 14.9608L36.3949 14.9308C36.3944 14.9307 36.3939 14.9305 36.3933 14.9303L38.613 12.1558C38.6272 12.2838 38.5361 12.7534 38.0581 13.6071C37.5159 14.5752 37.6413 14.7353 37.733 14.8523C37.7423 14.8642 37.7514 14.8757 37.7593 14.8876C37.7601 14.8888 37.7607 14.8899 37.7612 14.8911C40.3773 18.1515 41.9424 22.2914 41.9424 26.7968Z" fill="#5E0E33"/>
<path d="M29.1369 24.6625C26.7465 27.7786 19.7888 28.8457 15.5629 27.0102C19.9339 31.6544 25.6651 30.9942 27.9843 30.0836C29.1369 33.9679 24.0573 38.8767 19.1912 34.1387H15.1361C20.9413 46.9869 38.613 36.0595 29.1369 24.6625Z" fill="#5E0E33"/>
<path d="M26.4049 20.6501C15.6483 28.2481 14.3677 9.80807 26.4049 15.1437C28.283 15.8199 28.027 14.3372 27.3013 13.8632C13.6421 4.94195 7.96498 28.5542 22.8621 25.8577C28.9067 24.7636 38.3711 12.2411 42.3266 6.05177C39.7228 8.74094 32.1248 16.9792 26.4049 20.6501Z" fill="#5E0E33"/>
<path d="M44.0319 3.86908C43.2823 4.10298 41.7267 4.89498 41.0033 5.28343C40.7045 5.44181 42.1131 5.41149 42.1131 5.41149C42.1131 5.41149 43.4364 4.38704 43.3937 4.55778C43.3083 4.68584 42.7534 5.45417 42.7534 5.6676C42.7534 5.88103 43.223 7.33233 43.351 7.24695C43.4495 7.18128 43.8981 5.11017 44.1348 3.96448C44.1475 3.90293 44.0919 3.85035 44.0319 3.86908Z" fill="#5E0E33"/>
<path d="M61.9488 20.7385L61.2528 20.8825C60.8208 19.3465 60.1968 17.6905 58.1088 17.6905C56.2608 17.6905 55.4448 19.0345 55.4448 20.3305C55.4448 22.0825 56.5968 22.8985 58.4928 23.8825C60.3648 24.8425 62.6448 25.9705 62.6448 28.6585C62.6448 31.1785 60.5088 33.1945 57.3168 33.1945C56.3328 33.1945 55.5648 33.0025 54.9648 32.8345C54.3648 32.6185 54.0048 32.4505 53.7888 32.3305C53.5968 31.8265 53.2848 29.7625 53.1408 28.6105L53.8368 28.4425C54.2208 29.9065 55.3008 32.3305 57.7728 32.3305C59.5728 32.3305 60.6528 31.2025 60.6528 29.4505C60.6528 27.6745 59.3328 26.8345 57.5328 25.8745C55.9968 25.0585 53.5728 23.8585 53.5728 21.1465C53.5728 18.8425 55.4208 16.8745 58.5168 16.8745C59.6208 16.8745 60.6288 17.1385 61.5408 17.4265C61.6368 18.2905 61.7568 19.2265 61.9488 20.7385ZM79.829 22.3465V22.9465C78.629 23.1385 78.413 23.4265 77.909 24.7465C77.189 26.6425 76.133 29.8345 75.029 33.0985H74.357C73.397 30.5065 72.413 28.1545 71.429 25.6345C70.517 28.0345 69.533 30.4345 68.597 33.0985H67.901C67.037 30.2425 66.125 27.4105 65.141 24.5305C64.709 23.2825 64.493 23.1145 63.341 22.9465V22.3465H68.309V22.9465C66.869 23.1865 66.749 23.3305 67.109 24.4105C67.661 26.2585 68.261 28.1545 68.861 30.0025H68.909C69.797 27.6985 70.685 25.2265 71.693 22.4665H72.317C73.205 24.9625 74.189 27.5065 75.197 30.0745H75.245C75.773 28.4185 76.445 26.3305 76.877 24.5545C77.189 23.3065 77.045 23.1625 75.485 22.9465V22.3465H79.829ZM82.865 19.9705C82.241 19.9705 81.665 19.3945 81.665 18.7465C81.665 18.0265 82.241 17.4985 82.889 17.4985C83.561 17.4985 84.089 18.0265 84.089 18.7465C84.089 19.3945 83.561 19.9705 82.865 19.9705ZM85.673 32.8345H80.393V32.2105C81.905 32.0665 82.073 31.9225 82.073 30.2905V25.3225C82.073 23.8585 82.001 23.7385 80.561 23.5225V22.9465C81.785 22.7545 82.913 22.4425 83.969 22.0105V30.2905C83.969 31.9225 84.137 32.0665 85.673 32.2105V32.8345ZM99.8949 32.0185L98.2389 32.8345C97.8309 33.0505 97.4709 33.1225 97.2549 33.1225C95.7429 33.1225 94.9029 32.1625 94.9029 30.2665V23.3065H90.3669V30.3145C90.3669 31.8745 90.5349 32.0665 92.1429 32.2105V32.8345H86.7909V32.2105C88.3029 32.0425 88.4709 31.8505 88.4709 30.3385V23.3065H86.7909L86.6709 23.0425L87.2949 22.3465H88.4709V21.7465C88.4709 21.0025 88.5669 20.4025 88.7109 19.8985C88.8789 19.3465 89.2869 18.0985 90.6309 17.0185C91.5429 16.2745 92.3829 15.8665 93.2709 15.7465C94.1349 15.7705 94.7349 16.1065 95.0709 16.4665C95.3109 16.7305 95.3589 17.0425 95.2389 17.3305C95.1189 17.5465 94.9269 17.7865 94.6629 17.9545C94.4709 18.0745 94.3029 18.0745 94.0869 17.8585C93.6549 17.4265 92.8869 17.0185 92.2389 17.0185C91.6869 17.0185 91.2549 17.2585 90.9429 17.7385C90.6069 18.2425 90.3429 19.3225 90.3669 21.7225V22.3465H94.9029V20.7145L96.4389 19.1065L96.7749 19.1545V22.3465H99.5109C99.7029 22.5625 99.6549 23.1145 99.3429 23.3065H96.7749V29.4505C96.7749 31.3945 97.5669 31.7785 98.1909 31.7785C98.8149 31.7785 99.3429 31.5385 99.6789 31.3705L99.8949 32.0185ZM116.79 22.3465V22.9465C115.59 23.1385 115.374 23.4265 114.87 24.7465C114.15 26.6425 113.094 29.8345 111.99 33.0985H111.318C110.358 30.5065 109.374 28.1545 108.39 25.6345C107.478 28.0345 106.494 30.4345 105.558 33.0985H104.862C103.998 30.2425 103.086 27.4105 102.102 24.5305C101.67 23.2825 101.454 23.1145 100.302 22.9465V22.3465H105.27V22.9465C103.83 23.1865 103.71 23.3305 104.07 24.4105C104.622 26.2585 105.222 28.1545 105.822 30.0025H105.87C106.758 27.6985 107.646 25.2265 108.654 22.4665H109.278C110.166 24.9625 111.15 27.5065 112.158 30.0745H112.206C112.734 28.4185 113.406 26.3305 113.838 24.5545C114.15 23.3065 114.006 23.1625 112.446 22.9465V22.3465H116.79ZM119.826 19.9705C119.202 19.9705 118.626 19.3945 118.626 18.7465C118.626 18.0265 119.202 17.4985 119.85 17.4985C120.522 17.4985 121.05 18.0265 121.05 18.7465C121.05 19.3945 120.522 19.9705 119.826 19.9705ZM122.634 32.8345H117.354V32.2105C118.866 32.0665 119.034 31.9225 119.034 30.2905V25.3225C119.034 23.8585 118.962 23.7385 117.522 23.5225V22.9465C118.746 22.7545 119.874 22.4425 120.93 22.0105V30.2905C120.93 31.9225 121.098 32.0665 122.634 32.2105V32.8345ZM135.56 32.8345H130.568V32.2105C131.984 32.0665 132.152 31.8745 132.152 30.2185V26.2105C132.152 24.5545 131.576 23.4745 129.968 23.4745C129.008 23.4745 128.072 24.0745 127.352 24.6985V30.3385C127.352 31.9705 127.496 32.0665 128.912 32.2105V32.8345H123.704V32.2105C125.336 32.0425 125.456 31.9225 125.456 30.3385V25.3705C125.456 23.8345 125.312 23.7625 124.016 23.5225V22.9705C125.168 22.7545 126.296 22.4665 127.352 21.9865V23.9065C127.832 23.5465 128.36 23.1865 128.96 22.7785C129.632 22.3465 130.256 22.0585 130.952 22.0585C132.848 22.0585 134.048 23.3785 134.048 25.7065V30.3385C134.048 31.9705 134.168 32.0665 135.56 32.2105V32.8345ZM147.033 22.3225L147.177 22.5145C146.961 22.8985 146.481 23.5465 146.097 23.7385L144.729 23.6665C145.185 24.1945 145.449 24.9385 145.449 25.8025C145.449 28.3945 143.289 29.6425 141.249 29.6425C140.841 29.6425 140.409 29.5705 140.025 29.5225C139.689 29.7385 139.305 30.1705 139.305 30.5065C139.305 30.9865 139.737 31.4425 140.817 31.4425C141.681 31.4425 142.545 31.4185 143.337 31.4185C144.825 31.4185 146.793 31.8985 146.793 34.2505C146.793 36.6745 143.985 39.0025 140.793 39.0025C138.129 39.0025 136.665 37.4425 136.641 36.0745C136.641 35.5465 136.857 35.0905 137.217 34.7305C137.697 34.2505 138.633 33.4825 139.209 33.0505C138.345 32.7865 137.745 32.2345 137.433 31.7305C137.217 31.3705 137.145 30.9625 137.169 30.7225C138.129 30.3625 138.897 29.7385 139.281 29.2585C138.201 28.8025 137.169 27.6745 137.169 26.0425C137.169 23.3065 139.617 22.0585 141.441 22.0585H141.465C142.281 22.0585 143.073 22.2745 143.769 22.6585C144.945 22.6105 146.169 22.4665 147.033 22.3225ZM141.225 22.7785H141.201C140.169 22.7785 139.233 23.7865 139.233 25.6585C139.233 27.5305 140.145 28.8745 141.489 28.8745C142.545 28.8505 143.481 27.9145 143.481 26.0185C143.481 24.1225 142.593 22.7785 141.225 22.7785ZM141.753 33.0985H141.729C140.601 33.0985 140.073 33.2425 139.641 33.6265C139.017 34.1305 138.537 34.8025 138.537 35.4985C138.537 36.7945 139.929 37.7785 141.705 37.7785C143.985 37.7785 145.161 36.6025 145.161 35.1145C145.161 34.2985 144.753 33.6985 144.057 33.4105C143.457 33.1705 142.761 33.0985 141.753 33.0985ZM154.852 25.0345L154.228 25.1785C153.772 23.7625 152.932 22.8025 151.756 22.8025C150.844 22.8025 150.196 23.5225 150.196 24.4585C150.196 25.5145 151.156 26.0905 152.236 26.5465C154.036 27.2905 155.26 28.1545 155.26 29.8105C155.26 31.9945 153.22 33.1225 151.3 33.1225C150.076 33.1225 148.972 32.6665 148.54 32.3065C148.372 31.9705 148.156 30.3385 148.156 29.4745L148.78 29.3545C149.212 30.9385 150.292 32.3305 151.732 32.3305C152.62 32.3305 153.436 31.6585 153.436 30.6505C153.436 29.5945 152.74 29.0185 151.54 28.4665C150.1 27.7945 148.54 27.0025 148.54 25.1545C148.54 23.4745 149.98 22.0585 152.188 22.0585C153.172 22.0345 153.82 22.2745 154.324 22.4665C154.516 23.0185 154.78 24.4345 154.852 25.0345Z" fill="#5C0632"/>
</svg>
